<svg id="图层_1" xmlns="http://www.w3.org/2000/svg" viewBox="0 0 512 512"><style>.st0{fill:none;stroke:#333;stroke-width:8.96;stroke-linecap:round;stroke-miterlimit:10}.st1{fill:#f9d814}.st2{fill:none;stroke:#333;stroke-width:8.96;stroke-miterlimit:10}</style><path class="st0" d="M36.8 480H47M65.6 480.6h128.6M216 480.6h7.7M244.2 480.6h200.9M504 480.6h5.8M465 480.6h19.2M25.3 318.1h115.2M84.2 269.4h65.9M54.7 218.2h103.7M82.9 177.9h282.9V361H81.6"/><path class="st1" d="M499.5 293.8l-51.2-51.2h-69.1v131.8H142.4v52.5h21.8c1 19.3 16.9 34.6 36.4 34.6s35.4-15.3 36.4-34.6h160.7c.7 19.6 16.7 35.2 36.4 35.2s35.8-15.6 36.4-35.2h28.8V293.8h.2z"/><path class="st2" d="M365.8 241.3h61.4l57.9 57.9v115.5h-20.8"/><path class="st2" d="M390.7 264.3h26.9l46.7 46.7v28.8h-73.6z"/><path class="st0" d="M485.1 361h-25.3"/><path class="st2" d="M391.4 414.1h-160M133.2 361v53.1h23.3"/><circle class="st2" cx="194.9" cy="415.4" r="36.5"/><circle class="st2" cx="194.9" cy="415.4" r="14.1"/><circle class="st2" cx="427.8" cy="414.1" r="36.5"/><circle class="st2" cx="427.8" cy="414.1" r="14.1"/><circle class="st1" cx="431" cy="169" r="11.5"/><path class="st0" d="M434.2 164.5c0 5.7-4.6 10.2-10.2 10.2s-10.2-4.6-10.2-10.2 4.6-10.2 10.2-10.2"/><circle class="st1" cx="152" cy="116.5" r="11.5"/><path class="st0" d="M145 103c5.7 0 10.2 4.6 10.2 10.2s-4.6 10.2-10.2 10.2-10.2-4.6-10.2-10.2"/><circle class="st1" cx="290.2" cy="49.9" r="11.5"/><path class="st0" d="M298.6 41.6c0 5.7-4.6 10.2-10.2 10.2s-10.2-4.6-10.2-10.2 4.6-10.2 10.2-10.2M2.2 232.3h7.7M23.4 232.3H31M17 247.7V240M17 224.6V217M259.5 127.4h7.7M280.6 127.4h7.7M274.2 142.7V135M274.2 119.7V112M202.7 284.5c-1.3-4.4-2-9-2-13.8 0-19.9 12.1-36.9 29.3-44.2M285 302.1c-8.8 10.2-21.8 16.6-36.3 16.6-14.9 0-28.2-6.8-37-17.5M253.5 223c24.2 2.5 43.1 22.9 43.1 47.8 0 6.1-1.2 12-3.3 17.4"/><g><path class="st0" d="M216 221.2l15.3 1.2M230.1 237.7l1.2-15.3"/></g><g><path class="st0" d="M305.9 283.2l-13.1 7.9M284.8 277.9l8 13.2"/></g><g><path class="st0" d="M210.5 315.7l.6-15.4M226.4 300.9l-15.3-.6"/></g><path fill="none" d="M0 0h512v512H0z"/></svg>